<?xml version="1.0" standalone="no"?>
<!DOCTYPE svg PUBLIC "-//W3C//DTD SVG 20010904//EN"
 "http://www.w3.org/TR/2001/REC-SVG-20010904/DTD/svg10.dtd">
<svg version="1.0" xmlns="http://www.w3.org/2000/svg"
 width="16.000000pt" height="16.000000pt" viewBox="0 0 16.000000 16.000000"
 preserveAspectRatio="xMidYMid meet">
<metadata>
Created by potrace 1.11, written by Peter Selinger 2001-2013
</metadata>
<g transform="translate(0.000000,16.000000) scale(0.002000,-0.002000)"
fill="#000000" stroke="none">
<path d="M433 7784 c-23 -9 -60 -33 -82 -55 -78 -78 -71 244 -68 -3394 l2
-3260 22 -40 c25 -47 64 -85 113 -111 33 -18 77 -19 990 -19 l955 0 45 25 c58
33 105 96 119 160 8 35 11 368 11 1060 l0 1010 1043 2 1044 3 49 30 c30 19 60
49 79 79 l30 49 6 881 c4 485 7 956 8 1049 l1 167 1024 0 c1145 0 1075 -4
1153 72 77 76 73 13 73 1116 0 744 -3 995 -12 1026 -16 55 -99 138 -154 154
-32 9 -753 12 -3225 11 -2791 0 -3189 -2 -3226 -15z"/>
</g>
</svg>
